<mxfile host="app.diagrams.net" agent="Mozilla/5.0 (X11; Linux x86_64) AppleWebKit/537.36 (KHTML, like Gecko) Chrome/138.0.0.0 Safari/537.36" version="28.1.2">
  <diagram name="Page-1" id="hr_grFIyPr2wY6UUGl0G">
    <mxGraphModel dx="1426" dy="797" grid="1" gridSize="10" guides="1" tooltips="1" connect="1" arrows="1" fold="1" page="1" pageScale="1" pageWidth="1100" pageHeight="850" math="0" shadow="0">
      <root>
        <mxCell id="0" />
        <mxCell id="1" parent="0" />
        <mxCell id="cKot7g0snPyH9ex0f8C4-1" value="&lt;b&gt;Requests&lt;/b&gt;: 1505 / month&lt;div&gt;&lt;b&gt;Rate&lt;/b&gt; &lt;b&gt;Limiting&lt;/b&gt;: 1000 / hour; every 36 seconds&lt;/div&gt;&lt;div&gt;&lt;b&gt;Tier 1:&lt;/b&gt; 300 / month&lt;/div&gt;&lt;div&gt;&lt;b&gt;Tier 2: &lt;/b&gt;150 / month&lt;/div&gt;&lt;div&gt;&lt;b&gt;Tier 3:&lt;/b&gt; 50 / month&lt;/div&gt;" style="rounded=0;whiteSpace=wrap;html=1;" vertex="1" parent="1">
          <mxGeometry x="40" y="160" width="250" height="210" as="geometry" />
        </mxCell>
        <mxCell id="cKot7g0snPyH9ex0f8C4-2" value="Free Tier (Rapid)" style="text;html=1;align=center;verticalAlign=middle;resizable=0;points=[];autosize=1;strokeColor=none;fillColor=none;" vertex="1" parent="1">
          <mxGeometry x="110" y="130" width="110" height="30" as="geometry" />
        </mxCell>
        <mxCell id="cKot7g0snPyH9ex0f8C4-3" value="&lt;b&gt;Requests&lt;/b&gt;: 1505 / month&lt;div&gt;&lt;b&gt;Rate&lt;/b&gt; &lt;b&gt;Limit&lt;/b&gt;: 3600 / hour; every second&amp;nbsp;&lt;/div&gt;&lt;div&gt;&lt;b&gt;Tier 1:&lt;/b&gt; 30000 / month&lt;/div&gt;&lt;div&gt;&lt;b&gt;Tier 2: &lt;/b&gt;15000 / month&lt;/div&gt;&lt;div&gt;&lt;b&gt;Tier 3:&lt;/b&gt; 5000 / month&lt;/div&gt;" style="rounded=0;whiteSpace=wrap;html=1;" vertex="1" parent="1">
          <mxGeometry x="340" y="160" width="250" height="210" as="geometry" />
        </mxCell>
        <mxCell id="cKot7g0snPyH9ex0f8C4-4" value="Ultra Tier" style="text;html=1;align=center;verticalAlign=middle;resizable=0;points=[];autosize=1;strokeColor=none;fillColor=none;" vertex="1" parent="1">
          <mxGeometry x="430" y="130" width="70" height="30" as="geometry" />
        </mxCell>
        <mxCell id="cKot7g0snPyH9ex0f8C4-5" value="&lt;b&gt;&lt;font style=&quot;font-size: 14px;&quot;&gt;0 $ USD / month&lt;/font&gt;&lt;/b&gt;" style="text;html=1;align=center;verticalAlign=middle;resizable=0;points=[];autosize=1;strokeColor=none;fillColor=none;" vertex="1" parent="1">
          <mxGeometry x="105" y="170" width="120" height="30" as="geometry" />
        </mxCell>
        <mxCell id="cKot7g0snPyH9ex0f8C4-6" value="&lt;b&gt;&lt;font style=&quot;font-size: 14px;&quot;&gt;15 $ USD / month&lt;/font&gt;&lt;/b&gt;" style="text;html=1;align=center;verticalAlign=middle;resizable=0;points=[];autosize=1;strokeColor=none;fillColor=none;" vertex="1" parent="1">
          <mxGeometry x="400" y="170" width="130" height="30" as="geometry" />
        </mxCell>
        <mxCell id="cKot7g0snPyH9ex0f8C4-9" value="&lt;b&gt;Requests&lt;/b&gt;: 1505 / month&lt;div&gt;&lt;b&gt;Rate&lt;/b&gt; &lt;b&gt;Limit&lt;/b&gt;: 3600 / hour; every second&amp;nbsp;&lt;/div&gt;&lt;div&gt;&lt;b&gt;Tier 1:&lt;/b&gt;&amp;nbsp;&lt;span style=&quot;background-color: transparent;&quot;&gt;$ 0.00167 USD per call&lt;/span&gt;&lt;/div&gt;&lt;div&gt;&lt;b&gt;Tier 2:&amp;nbsp;&lt;/b&gt;&lt;span style=&quot;background-color: transparent;&quot;&gt;&lt;b&gt;$ &lt;/b&gt;0.0033 USD per call&lt;/span&gt;&lt;/div&gt;&lt;div&gt;&lt;b&gt;Tier 3:&lt;/b&gt;&amp;nbsp;&lt;span style=&quot;background-color: transparent;&quot;&gt;$ 0.01 USD per call&lt;/span&gt;&lt;/div&gt;" style="rounded=0;whiteSpace=wrap;html=1;" vertex="1" parent="1">
          <mxGeometry x="640" y="160" width="250" height="210" as="geometry" />
        </mxCell>
        <mxCell id="cKot7g0snPyH9ex0f8C4-10" value="Pay-per-use (Sulu)" style="text;html=1;align=center;verticalAlign=middle;resizable=0;points=[];autosize=1;strokeColor=none;fillColor=none;" vertex="1" parent="1">
          <mxGeometry x="710" y="130" width="110" height="30" as="geometry" />
        </mxCell>
        <mxCell id="cKot7g0snPyH9ex0f8C4-11" value="&lt;b&gt;&lt;font style=&quot;font-size: 14px;&quot;&gt;x $ USD / month&lt;/font&gt;&lt;/b&gt;" style="text;html=1;align=center;verticalAlign=middle;resizable=0;points=[];autosize=1;strokeColor=none;fillColor=none;" vertex="1" parent="1">
          <mxGeometry x="705" y="170" width="120" height="30" as="geometry" />
        </mxCell>
        <mxCell id="cKot7g0snPyH9ex0f8C4-12" value="&lt;b&gt;Flight amount:&lt;/b&gt; 1000 flights per day (arrivals and departures); 30000 flights per month&lt;div&gt;&lt;b&gt;Delayed flights (conserative): 30%; &lt;/b&gt;9000 flights per month&lt;br&gt;&lt;div&gt;&lt;b&gt;Requested data:&lt;/b&gt;&lt;/div&gt;&lt;div&gt;&lt;b&gt;1. &lt;/b&gt;Tier 2:&amp;nbsp;Full flight history of airport for each day, means 30000 flights per month&amp;nbsp;&lt;/div&gt;&lt;div&gt;&lt;b&gt;-&amp;gt; Strategy: &lt;/b&gt;24 calls per day /&lt;i&gt;&lt;u style=&quot;&quot;&gt; 720 calls per month&lt;/u&gt;&lt;/i&gt;&amp;nbsp;(1 call / minute: 600 from Free Tier, 1 call / second : 120 from Paid Tier)&lt;/div&gt;&lt;div&gt;&lt;b&gt;2.&lt;/b&gt; Tier 2:&amp;nbsp;Full flight history of aircraft on specific date which is delayed (d &amp;gt;= 15 min), means &lt;i&gt;&lt;u&gt;max. 9000 calls per month&lt;/u&gt;&lt;/i&gt; if 30% of flights are delayed and each flight has an individual aircraft (not the case) -&amp;gt; &lt;b&gt;Strategy: &lt;/b&gt;1 call / every 10 seconds: 9.000 from Paid Tier&amp;nbsp;&lt;/div&gt;&lt;div&gt;&lt;b&gt;3. &lt;/b&gt;Tier 1:&amp;nbsp;Aircraft info (with registration history) by tail-number for each aircraft which is delayed (see 2. for definition), means max. &lt;u&gt;&lt;i&gt;1.000 calls per month &lt;/i&gt;&lt;/u&gt;because the results can be cached, only request again once per month if registration history changed (extra endpoint in Pay-per-use)&lt;/div&gt;&lt;div&gt;&lt;br&gt;&lt;/div&gt;&lt;div&gt;Decision:&lt;/div&gt;&lt;div&gt;Free Tier + Pay-per-use for parts of Tier 1 and 2&amp;nbsp;&lt;/div&gt;&lt;div&gt;&lt;br&gt;&lt;/div&gt;&lt;div&gt;&lt;br&gt;&lt;div&gt;&lt;br&gt;&lt;div&gt;&lt;br&gt;&lt;/div&gt;&lt;/div&gt;&lt;/div&gt;&lt;/div&gt;" style="whiteSpace=wrap;html=1;aspect=fixed;" vertex="1" parent="1">
          <mxGeometry x="40" y="440" width="380" height="380" as="geometry" />
        </mxCell>
        <mxCell id="cKot7g0snPyH9ex0f8C4-13" value="&lt;span style=&quot;color: rgb(0, 0, 0); font-family: Helvetica; font-size: 12px; font-style: normal; font-variant-ligatures: normal; font-variant-caps: normal; font-weight: 400; letter-spacing: normal; orphans: 2; text-align: center; text-indent: 0px; text-transform: none; widows: 2; word-spacing: 0px; -webkit-text-stroke-width: 0px; white-space: normal; background-color: rgb(236, 236, 236); text-decoration-thickness: initial; text-decoration-style: initial; text-decoration-color: initial; display: inline !important; float: none;&quot;&gt;MUC&lt;/span&gt;" style="text;whiteSpace=wrap;html=1;" vertex="1" parent="1">
          <mxGeometry x="230" y="405" width="40" height="40" as="geometry" />
        </mxCell>
      </root>
    </mxGraphModel>
  </diagram>
</mxfile>
